<svg xmlns="http://www.w3.org/2000/svg" width="18" height="18" viewBox="0 0 48 48" aria-hidden="true">
  <path fill="#FFC107" d="M43.6 20.5H42V20H24v8h11.3c-1.6 4.6-6 8-11.3 8-6.6 0-12-5.4-12-12s5.4-12 12-12c3.1 0 5.9 1.2 8 3.1L38.1 9C34.6 5.8 29.6 4 24 4 12.9 4 4 12.9 4 24s8.9 20 20 20 20-8.9 20-20c0-1.3-.1-2.7-.4-3.5z"/>
  <path fill="#FF3D00" d="M6.3 14.7l6.6 4.8C14.5 16 19 13 24 13c3.1 0 5.9 1.2 8 3.1L38.1 9C34.6 5.8 29.6 4 24 4c-7.7 0-14.3 4.3-17.7 10.7z"/>
  <path fill="#4CAF50" d="M24 44c5.5 0 10.5-2.1 14.3-5.5l-6.6-5.4c-2 1.4-4.6 2.3-7.7 2.3-5.3 0-9.7-3.4-11.3-8l-6.6 5.1C9.7 39.7 16.3 44 24 44z"/>
  <path fill="#1976D2" d="M43.6 20.5H42V20H24v8h11.3c-.7 2.1-2.1 3.9-4 5.1l6.6 5.4c-1 .9 5.1-3.8 5.1-11.5 0-1.3-.1-2.7-.4-3.5z"/>
</svg>
